ply
format ascii 1.0
comment VCGLIB generated
element vertex 64
property float x
property float y
property float z
element face 64
property list uchar int vertex_indices
end_header
1 0 0 
0.5 0 0 
0.9807853 0.1950903 0 
0.4903926 0.09754516 0 
0.9238795 0.3826834 0 
0.4619398 0.1913417 0 
0.8314696 0.5555702 0 
0.4157348 0.2777851 0 
0.7071068 0.7071068 0 
0.3535534 0.3535534 0 
0.5555702 0.8314696 0 
0.2777851 0.4157348 0 
0.3826834 0.9238795 0 
0.1913417 0.4619398 0 
0.1950903 0.9807853 0 
0.09754516 0.4903926 0 
6.123234e-17 1 0 
3.061617e-17 0.5 0 
-0.1950903 0.9807853 0 
-0.09754516 0.4903926 0 
-0.3826834 0.9238795 0 
-0.1913417 0.4619398 0 
-0.5555702 0.8314696 0 
-0.2777851 0.4157348 0 
-0.7071068 0.7071068 0 
-0.3535534 0.3535534 0 
-0.8314696 0.5555702 0 
-0.4157348 0.2777851 0 
-0.9238795 0.3826834 0 
-0.4619398 0.1913417 0 
-0.9807853 0.1950903 0 
-0.4903926 0.09754516 0 
-1 1.224647e-16 0 
-0.5 6.123234e-17 0 
-0.9807853 -0.1950903 0 
-0.4903926 -0.09754516 0 
-0.9238795 -0.3826834 0 
-0.4619398 -0.1913417 0 
-0.8314696 -0.5555702 0 
-0.4157348 -0.2777851 0 
-0.7071068 -0.7071068 0 
-0.3535534 -0.3535534 0 
-0.5555702 -0.8314696 0 
-0.2777851 -0.4157348 0 
-0.3826834 -0.9238795 0 
-0.1913417 -0.4619398 0 
-0.1950903 -0.9807853 0 
-0.09754516 -0.4903926 0 
-1.83697e-16 -1 0 
-9.184851e-17 -0.5 0 
0.1950903 -0.9807853 0 
0.09754516 -0.4903926 0 
0.3826834 -0.9238795 0 
0.1913417 -0.4619398 0 
0.5555702 -0.8314696 0 
0.2777851 -0.4157348 0 
0.7071068 -0.7071068 0 
0.3535534 -0.3535534 0 
0.8314696 -0.5555702 0 
0.4157348 -0.2777851 0 
0.9238795 -0.3826834 0 
0.4619398 -0.1913417 0 
0.9807853 -0.1950903 0 
0.4903926 -0.09754516 0 
3 0 3 1 
3 2 3 0 
3 2 5 3 
3 4 5 2 
3 4 7 5 
3 6 7 4 
3 6 9 7 
3 8 9 6 
3 8 11 9 
3 10 11 8 
3 10 13 11 
3 12 13 10 
3 12 15 13 
3 14 15 12 
3 14 17 15 
3 16 17 14 
3 16 19 17 
3 18 19 16 
3 18 21 19 
3 20 21 18 
3 20 23 21 
3 22 23 20 
3 22 25 23 
3 24 25 22 
3 24 27 25 
3 26 27 24 
3 26 29 27 
3 28 29 26 
3 28 31 29 
3 30 31 28 
3 30 33 31 
3 32 33 30 
3 32 35 33 
3 34 35 32 
3 34 37 35 
3 36 37 34 
3 36 39 37 
3 38 39 36 
3 38 41 39 
3 40 41 38 
3 40 43 41 
3 42 43 40 
3 42 45 43 
3 44 45 42 
3 44 47 45 
3 46 47 44 
3 46 49 47 
3 48 49 46 
3 48 51 49 
3 50 51 48 
3 50 53 51 
3 52 53 50 
3 52 55 53 
3 54 55 52 
3 54 57 55 
3 56 57 54 
3 56 59 57 
3 58 59 56 
3 58 61 59 
3 60 61 58 
3 60 63 61 
3 62 63 60 
3 62 1 63 
3 0 1 62 
