ply
format ascii 1.0
comment VCGLIB generated
element vertex 264
property float x
property float y
property float z
element face 524
property list uchar int vertex_indices
end_header
-0.08160093 0.9906718 0.5845233 
-0.0888329 0.9076694 -0.5949018 
-0.1424677 -0.986619 0.5553463 
-0.0422666 -0.9440148 -0.574539 
1.149305 0.7103094 0 
1.149305 -0.7103094 0 
-1.618034 1 0 
-1.618034 -1 0 
0.7103094 1.862645e-09 1.149305 
-0.6131806 -0.02025673 0.920133 
0.5323794 -0.002769436 -1.022898 
-1 0 -1.618034 
0.7268175 1.02777 0.4491979 
0.6954138 1.010865 -0.3591246 
0.7587571 -0.9536478 -0.4550669 
0.6707796 -1.068034 0.354598 
1.341559 1.862645e-09 0 
1.130205 -0.3750753 -0.6068847 
1.130205 0.3750753 -0.6068847 
1.085344 0.4145646 0.6707796 
1.085344 -0.4145646 0.6707796 
0.0916205 0.1258018 1.291519 
0.3899304 -0.6136106 1.089871 
0.4950081 0.6526949 1.056083 
0.9688339 0.9074935 -0.1908002 
0.7011586 1.107925 0.1036979 
0.9679314 0.9137608 0.2068387 
0.9651388 -0.9160689 0.1901212 
0.7040477 -1.10122 -0.1046814 
0.972052 -0.9041979 -0.2075959 
1.276484 -0.2047257 -0.3554871 
1.155155 -1.862645e-09 -0.6753064 
1.276484 0.2047257 -0.3554871 
1.274342 0.2068458 0.3589176 
1.146504 -1.862645e-09 0.6936011 
1.274342 -0.2068458 0.3589176 
0.4031962 0.01623031 1.281688 
0.17695 -0.2483585 1.275278 
0.5927935 -0.3136014 1.164934 
0.6041247 0.3251092 1.159297 
0.2779513 0.4277133 1.215292 
0.7916896 0.5796874 0.9137199 
0.918217 0.7844132 0.5824667 
0.5968863 0.9032968 0.7862585 
1.16886 0.5886516 -0.319199 
0.9614658 0.686739 -0.577795 
0.9154245 -0.7867212 0.5777425 
0.786355 -0.5778824 0.9156508 
0.5770457 -0.9042526 0.7792707 
0.9646839 -0.6834433 -0.5825974 
1.16886 -0.5886515 -0.319199 
0.3588267 1.163391 0.03356577 
0.3949774 1.024078 -0.4820469 
0.4282361 1.112162 0.5339435 
0.3570874 -1.169266 -0.03405952 
0.3351665 -1.106813 0.5191456 
0.4787349 -1.038937 -0.495759 
1.287316 0.3973724 0 
1.287315 -0.3973724 0 
0.957099 -0.2564439 -0.8506376 
0.957099 0.2564439 -0.8506376 
1.164255 -0.5964886 0.3221768 
1.164255 0.5964886 0.3221768 
0.9186653 0.1991162 0.9651388 
0.9186654 -0.1991162 0.9651388 
-0.1816241 0.029546 1.233083 
-0.08946293 -0.446732 1.135024 
0.188704 -0.8698323 0.9025893 
-0.04372117 0.5056223 1.118032 
0.2697451 0.8557181 0.9488785 
0.6665874 0.6654239 -0.7721623 
0.6798906 -0.6652062 -0.7764084 
0.8416693 1.026078 -0.06237234 
0.8447911 1.027179 0.143328 
0.9683514 0.9346895 0.01199332 
0.8392059 -1.031795 0.06191968 
0.8481055 -1.019487 -0.1439371 
0.9683514 -0.9346895 -0.01199332 
1.228043 -0.1007751 -0.5254769 
1.228043 0.1007751 -0.5254769 
1.288663 4.656613e-10 -0.3624194 
1.22376 0.1050153 0.5323378 
1.22376 -0.1050153 0.5323378 
1.288663 4.656613e-10 0.3624194 
0.2991244 -0.131217 1.293314 
0.3910494 -0.3066628 1.235209 
0.4885811 -0.1584049 1.244061 
0.5005744 0.1778105 1.236649 
0.4376985 0.3684896 1.20911 
0.3351044 0.2155438 1.271077 
0.8613406 0.6914222 0.7563252 
0.7619104 0.8549935 0.694874 
0.6996279 0.7542183 0.8579316 
1.078244 0.756879 -0.2757101 
1.07253 0.6586896 -0.4529006 
0.9668143 0.8235896 -0.3900061 
0.8613406 -0.6914222 0.7563252 
0.6889588 -0.7506083 0.8617932 
0.7563252 -0.8596096 0.6854255 
0.9732505 -0.8169984 -0.3996109 
1.07253 -0.6586896 -0.4529006 
1.078244 -0.756879 -0.2757101 
0.5369072 1.025027 -0.428421 
0.3521657 1.110909 -0.2937857 
0.5350149 1.122455 -0.1646937 
0.5418676 1.15641 0.08693534 
0.3807397 1.162929 0.3295455 
0.5591223 1.141568 0.3078877 
0.4999559 -1.11078 0.421631 
0.3340504 -1.158619 0.2860548 
0.5226978 -1.151039 0.1624304 
0.5443311 -1.150693 -0.08829332 
0.3953764 -1.126968 -0.3264234 
0.5772173 -1.099574 -0.3112127 
1.296251 0.3043971 -0.1785734 
1.236323 0.4040531 -0.3398202 
1.243156 0.4935079 -0.1698387 
1.243156 -0.4935079 -0.1698387 
1.236323 -0.4040531 -0.3398202 
1.296251 -0.3043971 -0.1785734 
1.065665 -0.113789 -0.7866099 
0.9547236 -4.656612e-10 -0.8899221 
1.065665 0.113789 -0.7866099 
1.296251 -0.3043971 0.1785734 
1.23204 -0.4082934 0.3466811 
1.243156 -0.4935079 0.1698387 
1.243156 0.4935079 0.1698387 
1.23204 0.4082934 0.3466811 
1.296251 0.3043971 0.1785734 
1.043912 0.1038963 0.8392059 
0.9381515 0 0.9683514 
1.043912 -0.1038963 0.8392059 
-0.1915977 -0.1772238 1.210295 
0.04064258 -0.3357084 1.23038 
-0.02841482 -0.1196407 1.274353 
0.2720384 -0.7420018 1.018327 
0.1483959 -0.5454061 1.142365 
0.0552468 -0.7075055 1.015972 
-0.04194421 0.09842967 1.272615 
0.01802237 0.3097956 1.235554 
-0.1737282 0.2402052 1.194201 
0.1134327 0.7304175 1.029364 
0.1269388 0.494146 1.180479 
0.2535195 0.6470919 1.107966 
0.433673 0.9087947 0.8679653 
0.5039985 1.022584 0.6838508 
0.3274265 1.014988 0.7523629 
0.7683128 0.2748048 1.073317 
0.8653389 0.392834 0.9495704 
0.7054369 0.4549386 1.050058 
1.053467 0.6972312 0.4570455 
1.073317 0.7683128 0.2748048 
0.9551555 0.8589917 0.3962858 
0.6973469 0.8597962 -0.5896844 
0.4813049 0.9019572 -0.6318766 
0.8321626 0.4325117 -0.8522949 
0.8391982 0.6753193 -0.6914863 
0.9590471 0.4944757 -0.7391289 
0.4521187 -1.029916 0.6561599 
0.3755901 -0.90609 0.8565142 
0.2473936 -1.016675 0.7228354 
1.073317 -0.7683128 0.2748048 
1.053467 -0.6972312 0.4570455 
0.9495704 -0.8636079 0.3868374 
0.8653389 -0.392834 0.9495704 
0.7683128 -0.2748048 1.073317 
0.6947678 -0.4513286 1.053919 
0.6327904 -0.9933138 -0.493863 
0.5307789 -0.8997113 -0.6502226 
0.7280893 -0.8391169 -0.6234258 
0.8456345 -0.668728 -0.7010912 
0.8321626 -0.4325117 -0.8522949 
0.9590471 -0.4944757 -0.7391289 
1.074717 0.8138819 -0.09250133 
1.074717 0.8138819 0.09250133 
0.8400725 0.9742974 -0.2812697 
0.6957188 1.087933 -0.1213896 
0.7121503 1.083264 0.2988037 
0.8445107 0.9890333 0.3313384 
1.074717 -0.8138819 0.09250133 
1.074717 -0.8138819 -0.09250133 
0.8277553 -1.002882 0.2790064 
0.6883285 -1.105084 0.1200316 
0.7270207 -1.048754 -0.3015361 
0.8593811 -0.9545234 -0.3340709 
1.32409 -0.1023654 -0.1829407 
1.32409 0.1023654 -0.1829407 
1.207163 -0.2996261 -0.5021152 
1.148265 -0.2043272 -0.6563121 
1.148265 0.2043272 -0.6563121 
1.207163 0.2996261 -0.5021152 
1.32409 0.1023654 0.1829407 
1.32409 -0.1023654 0.1829407 
1.194314 0.3123468 0.5226978 
1.131049 0.2099815 0.6883285 
1.131049 -0.2099815 0.6883285 
1.194314 -0.3123468 0.5226978 
0.5717102 0 1.224387 
0.6642116 -0.1496703 1.167218 
0.2332545 0.05857068 1.30515 
0.1133213 -0.05576725 1.30515 
0.2753955 -0.4369444 1.201104 
0.4992638 -0.4713714 1.139008 
0.1732879 0.2699365 1.268088 
0.6642116 0.1496703 1.167218 
0.5432646 0.5016069 1.120011 
0.3907967 0.5633025 1.140118 
0.6329683 0.6294406 1.001146 
0.5376694 0.7836375 0.9422483 
0.9481082 0.5059857 0.8013921 
1.011374 0.6083511 0.6357613 
0.8181475 0.9290667 0.5163411 
0.6639506 0.9879647 0.61164 
0.8383434 0.8571618 -0.4947857 
1.167218 0.6642116 -0.1496703 
1.154521 0.4874264 -0.4802786 
1.06029 0.5199611 -0.612639 
0.8013921 -0.9429153 0.4879957 
0.6357613 -1.002719 0.5783678 
1.011374 -0.6083511 0.6357613 
0.9481083 -0.5059857 0.8013921 
0.6009609 -0.6186106 1.012732 
0.4936686 -0.7728076 0.9503715 
1.167218 -0.6642116 -0.1496703 
0.857652 -0.8373879 -0.5236002 
1.06029 -0.5199611 -0.612639 
1.154521 -0.4874264 -0.4802786 
0.1453429 1.100644 -0.1999379 
0.2381227 1.010913 -0.5338235 
0.1696103 1.128615 0.2622762 
0.5932858 1.084993 0.4866039 
0.2281359 1.097708 0.5835629 
0.1376584 -1.133494 0.1911839 
0.1525865 -1.097336 0.5325303 
0.1732345 -1.119893 -0.2502296 
0.2986334 -1.02938 -0.5501933 
1.224387 0.5717102 0 
1.327711 0.2025912 0 
1.327711 -0.2025912 0 
1.224387 -0.5717102 0 
1.058561 0.3321609 -0.7315035 
1.058562 -0.3321609 -0.7315035 
0.8155575 -0.1472393 -0.9543269 
0.8155575 0.1472393 -0.9543269 
1.167218 -0.6642116 0.1496703 
1.136745 -0.5115809 0.4999559 
1.167218 0.6642116 0.1496703 
1.136745 0.5115809 0.4999559 
1.011537 -0.3089897 0.8277553 
1.011537 0.3089897 0.8277553 
0.8138819 0.09250133 1.074717 
0.8138819 -0.09250133 1.074717 
-0.3515931 0.0227083 1.152122 
-0.3310311 -0.3039741 1.069955 
-0.1433089 -0.6788791 0.9267657 
0.05061494 -0.932342 0.7994955 
-0.2917185 0.3344764 1.056046 
-0.07249989 0.7183639 0.9250406 
0.3879991 0.7528318 1.024052 
0.137137 0.9504682 0.8218011 
0.3577336 0.7569885 -0.7559838 
0.6171169 0.404534 -0.9093113 
0.3953767 -0.7772669 -0.7427925 
0.6258533 -0.4115953 -0.9032719 
3 72 73 74 
3 0 1 6 
3 75 76 77 
3 3 2 7 
3 78 79 80 
3 81 82 83 
3 6 7 9 
3 7 6 11 
3 84 85 86 
3 87 88 89 
3 10 11 1 
3 11 10 3 
3 90 91 92 
3 0 6 9 
3 93 94 95 
3 1 11 6 
3 96 97 98 
3 2 9 7 
3 99 100 101 
3 3 7 11 
3 102 103 104 
3 105 106 107 
3 108 109 110 
3 111 112 113 
3 114 115 116 
3 117 118 119 
3 120 121 122 
3 123 124 125 
3 126 127 128 
3 129 130 131 
3 132 133 134 
3 135 136 137 
3 138 139 140 
3 141 142 143 
3 144 145 146 
3 147 148 149 
3 150 151 152 
3 102 153 154 
3 155 156 157 
3 158 159 160 
3 161 162 163 
3 164 165 166 
3 167 168 169 
3 170 171 172 
3 173 74 174 
3 175 176 72 
3 73 177 178 
3 179 77 180 
3 181 182 75 
3 76 183 184 
3 185 80 186 
3 187 188 78 
3 79 189 190 
3 191 83 192 
3 193 194 81 
3 82 195 196 
3 197 86 198 
3 199 200 84 
3 85 201 202 
3 199 89 203 
3 197 204 87 
3 88 205 206 
3 207 92 208 
3 209 210 90 
3 91 211 212 
3 175 95 213 
3 173 214 93 
3 94 215 216 
3 217 98 218 
3 219 220 96 
3 97 221 222 
3 180 101 223 
3 184 224 99 
3 100 225 226 
3 227 103 228 
3 51 227 229 
3 177 107 230 
3 176 104 105 
3 106 229 231 
3 232 109 233 
3 54 232 234 
3 183 113 167 
3 182 110 111 
3 112 234 235 
3 236 116 214 
3 237 186 114 
3 115 190 215 
3 238 119 185 
3 239 223 117 
3 118 226 187 
3 189 122 240 
3 188 241 120 
3 121 242 243 
3 239 125 244 
3 238 192 123 
3 124 196 245 
3 237 128 191 
3 236 246 126 
3 127 247 193 
3 195 131 248 
3 194 249 129 
3 130 250 251 
3 138 134 200 
3 252 253 132 
3 133 136 201 
3 254 66 253 
3 254 255 137 
3 256 68 257 
3 256 252 140 
3 258 143 206 
3 259 257 141 
3 142 139 203 
3 259 146 231 
3 258 208 144 
3 145 212 230 
3 205 149 207 
3 204 250 147 
3 148 249 209 
3 211 152 178 
3 210 247 150 
3 151 246 174 
3 260 70 261 
3 260 228 154 
3 240 157 216 
3 243 261 155 
3 156 153 213 
3 233 160 255 
3 108 218 158 
3 159 222 135 
3 181 163 217 
3 179 244 161 
3 162 245 219 
3 221 166 202 
3 220 248 164 
3 165 251 198 
3 262 168 235 
3 71 262 263 
3 225 172 241 
3 224 169 170 
3 171 263 242 
3 24 72 74 
3 72 25 73 
3 74 73 26 
3 27 75 77 
3 75 28 76 
3 77 76 29 
3 30 78 80 
3 78 31 79 
3 80 79 32 
3 33 81 83 
3 81 34 82 
3 83 82 35 
3 36 84 86 
3 84 37 85 
3 86 85 38 
3 36 87 89 
3 87 39 88 
3 89 88 40 
3 41 90 92 
3 90 42 91 
3 92 91 43 
3 24 93 95 
3 93 44 94 
3 95 94 45 
3 46 96 98 
3 96 47 97 
3 98 97 48 
3 29 99 101 
3 99 49 100 
3 101 100 50 
3 13 102 104 
3 102 52 103 
3 104 103 51 
3 25 105 107 
3 105 51 106 
3 107 106 53 
3 15 108 110 
3 108 55 109 
3 110 109 54 
3 28 111 113 
3 111 54 112 
3 113 112 56 
3 57 114 116 
3 114 32 115 
3 116 115 44 
3 58 117 119 
3 117 50 118 
3 119 118 30 
3 31 120 122 
3 120 59 121 
3 122 121 60 
3 58 123 125 
3 123 35 124 
3 125 124 61 
3 57 126 128 
3 126 62 127 
3 128 127 33 
3 34 129 131 
3 129 63 130 
3 131 130 64 
3 65 132 134 
3 132 66 133 
3 134 133 37 
3 67 135 137 
3 135 22 136 
3 137 136 66 
3 65 138 140 
3 138 21 139 
3 140 139 68 
3 69 141 143 
3 141 68 142 
3 143 142 40 
3 69 144 146 
3 144 43 145 
3 146 145 53 
3 39 147 149 
3 147 63 148 
3 149 148 41 
3 42 150 152 
3 150 62 151 
3 152 151 26 
3 52 102 154 
3 102 13 153 
3 154 153 70 
3 60 155 157 
3 155 70 156 
3 157 156 45 
3 55 158 160 
3 158 48 159 
3 160 159 67 
3 27 161 163 
3 161 61 162 
3 163 162 46 
3 47 164 166 
3 164 64 165 
3 166 165 38 
3 14 167 169 
3 167 56 168 
3 169 168 71 
3 49 170 172 
3 170 71 171 
3 172 171 59 
3 4 173 174 
3 173 24 74 
3 174 74 26 
3 24 175 72 
3 175 13 176 
3 72 176 25 
3 26 73 178 
3 73 25 177 
3 178 177 12 
3 5 179 180 
3 179 27 77 
3 180 77 29 
3 27 181 75 
3 181 15 182 
3 75 182 28 
3 29 76 184 
3 76 28 183 
3 184 183 14 
3 16 185 186 
3 185 30 80 
3 186 80 32 
3 30 187 78 
3 187 17 188 
3 78 188 31 
3 32 79 190 
3 79 31 189 
3 190 189 18 
3 16 191 192 
3 191 33 83 
3 192 83 35 
3 33 193 81 
3 193 19 194 
3 81 194 34 
3 35 82 196 
3 82 34 195 
3 196 195 20 
3 8 197 198 
3 197 36 86 
3 198 86 38 
3 36 199 84 
3 199 21 200 
3 84 200 37 
3 38 85 202 
3 85 37 201 
3 202 201 22 
3 21 199 203 
3 199 36 89 
3 203 89 40 
3 36 197 87 
3 197 8 204 
3 87 204 39 
3 40 88 206 
3 88 39 205 
3 206 205 23 
3 23 207 208 
3 207 41 92 
3 208 92 43 
3 41 209 90 
3 209 19 210 
3 90 210 42 
3 43 91 212 
3 91 42 211 
3 212 211 12 
3 13 175 213 
3 175 24 95 
3 213 95 45 
3 24 173 93 
3 173 4 214 
3 93 214 44 
3 45 94 216 
3 94 44 215 
3 216 215 18 
3 15 217 218 
3 217 46 98 
3 218 98 48 
3 46 219 96 
3 219 20 220 
3 96 220 47 
3 48 97 222 
3 97 47 221 
3 222 221 22 
3 5 180 223 
3 180 29 101 
3 223 101 50 
3 29 184 99 
3 184 14 224 
3 99 224 49 
3 50 100 226 
3 100 49 225 
3 226 225 17 
3 1 227 228 
3 227 51 103 
3 228 103 52 
3 227 0 229 
3 0 227 1 
3 12 177 230 
3 177 25 107 
3 230 107 53 
3 25 176 105 
3 176 13 104 
3 105 104 51 
3 53 106 231 
3 106 51 229 
3 231 229 0 
3 2 232 233 
3 232 54 109 
3 233 109 55 
3 232 3 234 
3 3 232 2 
3 14 183 167 
3 183 28 113 
3 167 113 56 
3 28 182 111 
3 182 15 110 
3 111 110 54 
3 56 112 235 
3 112 54 234 
3 235 234 3 
3 4 236 214 
3 236 57 116 
3 214 116 44 
3 57 237 114 
3 237 16 186 
3 114 186 32 
3 44 115 215 
3 115 32 190 
3 215 190 18 
3 16 238 185 
3 238 58 119 
3 185 119 30 
3 58 239 117 
3 239 5 223 
3 117 223 50 
3 30 118 187 
3 118 50 226 
3 187 226 17 
3 18 189 240 
3 189 31 122 
3 240 122 60 
3 31 188 120 
3 188 17 241 
3 120 241 59 
3 60 121 243 
3 121 59 242 
3 243 242 10 
3 5 239 244 
3 239 58 125 
3 244 125 61 
3 58 238 123 
3 238 16 192 
3 123 192 35 
3 61 124 245 
3 124 35 196 
3 245 196 20 
3 16 237 191 
3 237 57 128 
3 191 128 33 
3 57 236 126 
3 236 4 246 
3 126 246 62 
3 33 127 193 
3 127 62 247 
3 193 247 19 
3 20 195 248 
3 195 34 131 
3 248 131 64 
3 34 194 129 
3 194 19 249 
3 129 249 63 
3 64 130 251 
3 130 63 250 
3 251 250 8 
3 21 138 200 
3 138 65 134 
3 200 134 37 
3 65 252 132 
3 252 9 253 
3 132 253 66 
3 37 133 201 
3 133 66 136 
3 201 136 22 
3 2 254 9 
3 253 9 254 
3 66 254 137 
3 254 2 255 
3 137 255 67 
3 9 256 0 
3 257 0 256 
3 68 256 140 
3 256 9 252 
3 140 252 65 
3 23 258 206 
3 258 69 143 
3 206 143 40 
3 69 259 141 
3 259 0 257 
3 141 257 68 
3 40 142 203 
3 142 68 139 
3 203 139 21 
3 0 259 231 
3 259 69 146 
3 231 146 53 
3 69 258 144 
3 258 23 208 
3 144 208 43 
3 53 145 230 
3 145 43 212 
3 230 212 12 
3 23 205 207 
3 205 39 149 
3 207 149 41 
3 39 204 147 
3 204 8 250 
3 147 250 63 
3 41 148 209 
3 148 63 249 
3 209 249 19 
3 12 211 178 
3 211 42 152 
3 178 152 26 
3 42 210 150 
3 210 19 247 
3 150 247 62 
3 26 151 174 
3 151 62 246 
3 174 246 4 
3 1 260 10 
3 261 10 260 
3 70 260 154 
3 260 1 228 
3 154 228 52 
3 18 240 216 
3 240 60 157 
3 216 157 45 
3 60 243 155 
3 243 10 261 
3 155 261 70 
3 45 156 213 
3 156 70 153 
3 213 153 13 
3 2 233 255 
3 233 55 160 
3 255 160 67 
3 55 108 158 
3 108 15 218 
3 158 218 48 
3 67 159 135 
3 159 48 222 
3 135 222 22 
3 15 181 217 
3 181 27 163 
3 217 163 46 
3 27 179 161 
3 179 5 244 
3 161 244 61 
3 46 162 219 
3 162 61 245 
3 219 245 20 
3 22 221 202 
3 221 47 166 
3 202 166 38 
3 47 220 164 
3 220 20 248 
3 164 248 64 
3 38 165 198 
3 165 64 251 
3 198 251 8 
3 3 262 235 
3 262 71 168 
3 235 168 56 
3 262 10 263 
3 10 262 3 
3 17 225 241 
3 225 49 172 
3 241 172 59 
3 49 224 170 
3 224 14 169 
3 170 169 71 
3 59 171 242 
3 171 71 263 
3 242 263 10 
